<mxfile host="Electron" modified="2024-01-11T00:45:12.221Z" agent="Mozilla/5.0 (Windows NT 10.0; Win64; x64) AppleWebKit/537.36 (KHTML, like Gecko) draw.io/22.1.18 Chrome/120.0.6099.199 Electron/28.1.2 Safari/537.36" etag="vt8rZEcJNSLfmN01ysyT" version="22.1.18" type="device">
  <diagram id="prtHgNgQTEPvFCAcTncT" name="Page-1">
    <mxGraphModel dx="1434" dy="836" grid="1" gridSize="10" guides="1" tooltips="1" connect="1" arrows="1" fold="1" page="1" pageScale="1" pageWidth="1169" pageHeight="827" math="0" shadow="0">
      <root>
        <mxCell id="0" />
        <mxCell id="1" parent="0" />
        <mxCell id="dNxyNK7c78bLwvsdeMH5-11" value="App.vue" style="swimlane;html=1;startSize=20;horizontal=1;containerType=tree;glass=0;" parent="1" vertex="1">
          <mxGeometry x="350" y="10" width="250" height="180" as="geometry" />
        </mxCell>
        <mxCell id="wfpzKA2gG4ojYqCA0JwG-9" value="navBar" style="rounded=0;whiteSpace=wrap;html=1;" vertex="1" parent="dNxyNK7c78bLwvsdeMH5-11">
          <mxGeometry x="17.5" y="40" width="215" height="40" as="geometry" />
        </mxCell>
        <mxCell id="wfpzKA2gG4ojYqCA0JwG-10" value="container&lt;br&gt;(router-view)" style="rounded=0;whiteSpace=wrap;html=1;" vertex="1" parent="dNxyNK7c78bLwvsdeMH5-11">
          <mxGeometry x="17.5" y="100" width="215" height="60" as="geometry" />
        </mxCell>
        <mxCell id="wfpzKA2gG4ojYqCA0JwG-21" value="" style="endArrow=blockThin;endFill=1;fontSize=11;edgeStyle=elbowEdgeStyle;elbow=vertical;rounded=0;entryX=0.5;entryY=0;entryDx=0;entryDy=0;" edge="1" parent="dNxyNK7c78bLwvsdeMH5-11" target="wfpzKA2gG4ojYqCA0JwG-20">
          <mxGeometry relative="1" as="geometry">
            <mxPoint x="125" y="160" as="sourcePoint" />
            <mxPoint x="355" y="220" as="targetPoint" />
          </mxGeometry>
        </mxCell>
        <mxCell id="wfpzKA2gG4ojYqCA0JwG-22" value="" style="endArrow=blockThin;endFill=1;fontSize=11;edgeStyle=elbowEdgeStyle;elbow=vertical;rounded=0;entryX=0.5;entryY=0;entryDx=0;entryDy=0;" edge="1" parent="dNxyNK7c78bLwvsdeMH5-11" target="wfpzKA2gG4ojYqCA0JwG-16">
          <mxGeometry relative="1" as="geometry">
            <mxPoint x="125" y="160" as="sourcePoint" />
            <mxPoint x="-95" y="220" as="targetPoint" />
          </mxGeometry>
        </mxCell>
        <mxCell id="wfpzKA2gG4ojYqCA0JwG-16" value="Home" style="rounded=0;whiteSpace=wrap;html=1;" vertex="1" parent="1">
          <mxGeometry x="140" y="260" width="150" height="80" as="geometry" />
        </mxCell>
        <mxCell id="wfpzKA2gG4ojYqCA0JwG-20" value="Todos" style="rounded=0;whiteSpace=wrap;html=1;" vertex="1" parent="1">
          <mxGeometry x="670" y="260" width="150" height="80" as="geometry" />
        </mxCell>
        <mxCell id="wfpzKA2gG4ojYqCA0JwG-23" value="Search" style="rounded=0;whiteSpace=wrap;html=1;" vertex="1" parent="1">
          <mxGeometry x="20" y="414" width="150" height="80" as="geometry" />
        </mxCell>
        <mxCell id="wfpzKA2gG4ojYqCA0JwG-24" value="AddTodo" style="rounded=0;whiteSpace=wrap;html=1;" vertex="1" parent="1">
          <mxGeometry x="250" y="414" width="150" height="80" as="geometry" />
        </mxCell>
        <mxCell id="wfpzKA2gG4ojYqCA0JwG-25" value="" style="endArrow=blockThin;endFill=1;fontSize=11;edgeStyle=elbowEdgeStyle;elbow=vertical;rounded=0;entryX=0.5;entryY=0;entryDx=0;entryDy=0;" edge="1" parent="1" target="wfpzKA2gG4ojYqCA0JwG-24">
          <mxGeometry relative="1" as="geometry">
            <mxPoint x="210" y="340" as="sourcePoint" />
            <mxPoint x="330" y="410" as="targetPoint" />
          </mxGeometry>
        </mxCell>
        <mxCell id="wfpzKA2gG4ojYqCA0JwG-26" value="" style="endArrow=blockThin;endFill=1;fontSize=11;edgeStyle=elbowEdgeStyle;elbow=vertical;rounded=0;entryX=0.5;entryY=0;entryDx=0;entryDy=0;" edge="1" parent="1" target="wfpzKA2gG4ojYqCA0JwG-23">
          <mxGeometry relative="1" as="geometry">
            <mxPoint x="210" y="340" as="sourcePoint" />
            <mxPoint x="-50" y="430" as="targetPoint" />
          </mxGeometry>
        </mxCell>
        <mxCell id="wfpzKA2gG4ojYqCA0JwG-27" value="Search" style="rounded=0;whiteSpace=wrap;html=1;" vertex="1" parent="1">
          <mxGeometry x="475" y="414" width="150" height="80" as="geometry" />
        </mxCell>
        <mxCell id="wfpzKA2gG4ojYqCA0JwG-28" value="TodoList" style="rounded=0;whiteSpace=wrap;html=1;" vertex="1" parent="1">
          <mxGeometry x="870" y="414" width="150" height="80" as="geometry" />
        </mxCell>
        <mxCell id="wfpzKA2gG4ojYqCA0JwG-29" value="" style="endArrow=blockThin;endFill=1;fontSize=11;edgeStyle=elbowEdgeStyle;elbow=vertical;rounded=0;entryX=0.5;entryY=0;entryDx=0;entryDy=0;" edge="1" parent="1" target="wfpzKA2gG4ojYqCA0JwG-28">
          <mxGeometry relative="1" as="geometry">
            <mxPoint x="745" y="340" as="sourcePoint" />
            <mxPoint x="865" y="410" as="targetPoint" />
          </mxGeometry>
        </mxCell>
        <mxCell id="wfpzKA2gG4ojYqCA0JwG-30" value="" style="endArrow=blockThin;endFill=1;fontSize=11;edgeStyle=elbowEdgeStyle;elbow=vertical;rounded=0;entryX=0.5;entryY=0;entryDx=0;entryDy=0;" edge="1" parent="1" target="wfpzKA2gG4ojYqCA0JwG-27">
          <mxGeometry relative="1" as="geometry">
            <mxPoint x="745" y="340" as="sourcePoint" />
            <mxPoint x="485" y="430" as="targetPoint" />
          </mxGeometry>
        </mxCell>
        <mxCell id="wfpzKA2gG4ojYqCA0JwG-31" value="AddTodo" style="rounded=0;whiteSpace=wrap;html=1;" vertex="1" parent="1">
          <mxGeometry x="670" y="414" width="150" height="80" as="geometry" />
        </mxCell>
        <mxCell id="wfpzKA2gG4ojYqCA0JwG-32" value="" style="endArrow=classic;html=1;rounded=0;exitX=0.5;exitY=1;exitDx=0;exitDy=0;entryX=0.5;entryY=0;entryDx=0;entryDy=0;" edge="1" parent="1" source="wfpzKA2gG4ojYqCA0JwG-20" target="wfpzKA2gG4ojYqCA0JwG-31">
          <mxGeometry width="50" height="50" relative="1" as="geometry">
            <mxPoint x="510" y="330" as="sourcePoint" />
            <mxPoint x="530" y="390" as="targetPoint" />
          </mxGeometry>
        </mxCell>
        <mxCell id="wfpzKA2gG4ojYqCA0JwG-33" value="deleteModal" style="rounded=0;whiteSpace=wrap;html=1;" vertex="1" parent="1">
          <mxGeometry x="755" y="568" width="150" height="80" as="geometry" />
        </mxCell>
        <mxCell id="wfpzKA2gG4ojYqCA0JwG-34" value="updateModal" style="rounded=0;whiteSpace=wrap;html=1;" vertex="1" parent="1">
          <mxGeometry x="985" y="568" width="150" height="80" as="geometry" />
        </mxCell>
        <mxCell id="wfpzKA2gG4ojYqCA0JwG-35" value="" style="endArrow=blockThin;endFill=1;fontSize=11;edgeStyle=elbowEdgeStyle;elbow=vertical;rounded=0;entryX=0.5;entryY=0;entryDx=0;entryDy=0;" edge="1" parent="1" target="wfpzKA2gG4ojYqCA0JwG-34">
          <mxGeometry relative="1" as="geometry">
            <mxPoint x="945" y="494" as="sourcePoint" />
            <mxPoint x="1065" y="564" as="targetPoint" />
          </mxGeometry>
        </mxCell>
        <mxCell id="wfpzKA2gG4ojYqCA0JwG-36" value="" style="endArrow=blockThin;endFill=1;fontSize=11;edgeStyle=elbowEdgeStyle;elbow=vertical;rounded=0;entryX=0.5;entryY=0;entryDx=0;entryDy=0;" edge="1" parent="1" target="wfpzKA2gG4ojYqCA0JwG-33">
          <mxGeometry relative="1" as="geometry">
            <mxPoint x="945" y="494" as="sourcePoint" />
            <mxPoint x="685" y="584" as="targetPoint" />
          </mxGeometry>
        </mxCell>
        <mxCell id="wfpzKA2gG4ojYqCA0JwG-37" value="db.json" style="shape=cylinder3;whiteSpace=wrap;html=1;boundedLbl=1;backgroundOutline=1;size=15;" vertex="1" parent="1">
          <mxGeometry x="985" y="70" width="95" height="120" as="geometry" />
        </mxCell>
        <mxCell id="wfpzKA2gG4ojYqCA0JwG-38" value="" style="endArrow=none;dashed=1;html=1;dashPattern=1 3;strokeWidth=2;rounded=0;entryX=0;entryY=0.5;entryDx=0;entryDy=0;entryPerimeter=0;exitX=1;exitY=0;exitDx=0;exitDy=0;" edge="1" parent="1" source="wfpzKA2gG4ojYqCA0JwG-20" target="wfpzKA2gG4ojYqCA0JwG-37">
          <mxGeometry width="50" height="50" relative="1" as="geometry">
            <mxPoint x="840" y="310" as="sourcePoint" />
            <mxPoint x="890" y="260" as="targetPoint" />
          </mxGeometry>
        </mxCell>
      </root>
    </mxGraphModel>
  </diagram>
</mxfile>
